<svg xmlns="http://www.w3.org/2000/svg" version="1.1" xmlns:xlink="http://www.w3.org/1999/xlink" xmlns:svgjs="http://svgjs.dev/svgjs" width="100%" height="100%" viewBox="0 0 1000 600"><rect width="1000" height="600" x="0" y="0" fill="#000000"/><g><rect width="333.3333333333333" height="333.3333333333333" rx="13.333333333333334" ry="13.333333333333334" y="151.187559382289" fill="#8a9a5b" transform="matrix(0.9692525932517241,0,0,0.9692525932517242,-0.2438481033676938,-8.081053708641434)" x="137.1476135253906"/><path d="M129.21693421921452 366.1979117671229L129.21693421921452 366.1979117671229L143.13530821995974 360.9819530686188Q145.82564481181976 369.6843683708599 151.92008076480877 374.5983505131348Q157.98706430359516 379.5123326554097 166.27769339279644 379.5123326554097L166.27769339279644 379.5123326554097Q189.06319718099866 379.5123326554097 189.06319718099866 347.2831983814948L189.06319718099866 347.2831983814948L189.06319718099866 244.80333616299018L204.51890637709243 244.80333616299018L204.51890637709243 349.8088204881389Q204.51890637709243 371.02953666678985 194.74584692094786 381.92814510524323Q185.00023987900596 392.85420595789924 166.6620271916336 392.85420595789924L166.6620271916336 392.85420595789924Q137.91934952145562 392.85420595789924 129.21693421921452 366.1979117671229ZM251.79196363406137 352.8834908788361L251.79196363406137 352.8834908788361Q251.79196363406137 365.4292441694486 260.00023548065474 372.75903876155706Q268.20850732724807 380.0888333536655 281.13859441669774 380.0888333536655L281.13859441669774 380.0888333536655Q298.7081395063958 380.0888333536655 312.98339489177556 362.93107447700714L312.98339489177556 362.93107447700714L277.2678040141236 314.47756340932415Q265.90250453422516 322.3838586996883 258.84723408414334 331.4706078007665Q251.79196363406137 340.5299044876421 251.79196363406137 352.8834908788361ZM236.36370685217022 353.07565777825465L236.36370685217022 353.07565777825465Q236.36370685217022 324.4976945932926 269.36150872375947 303.66131221347877L269.36150872375947 303.66131221347877Q268.78500802550377 302.70047771638593 267.4398397295738 300.9709756216187L267.4398397295738 300.9709756216187Q262.60821482990673 294.21768172776603 260.57673617891044 290.92339202344766Q258.54525752791403 287.6565547333319 256.81575543314693 282.82492983366495Q255.08625333837975 277.993304933998 255.08625333837975 272.58517933607527L255.08625333837975 272.58517933607527Q255.08625333837975 260.2315929448813 264.44752658148457 251.55663005684286Q273.8087998245893 242.8542147546018 290.6096773166131 242.8542147546018L290.6096773166131 242.8542147546018Q316.2776845960939 242.8542147546018 328.2469371884507 267.1770537381526L328.2469371884507 267.1770537381526L316.46985149551244 272.3930124366567Q312.98339489177556 265.63971854280396 306.1477437553149 260.5335695011105Q299.2846402046515 255.39996804521434 291.57051181370593 255.39996804521434L291.57051181370593 255.39996804521434Q281.71509511495344 255.39996804521434 276.1148026176122 260.5335695011105Q270.51451012027087 265.63971854280396 270.51451012027087 273.16168003433097L270.51451012027087 273.16168003433097Q270.51451012027087 281.0679753246951 281.907262014372 298.06101971613754Q293.30001390847315 315.0540641075799 320.69752328272114 350.7696549852318L320.69752328272114 350.7696549852318Q326.6821495788995 338.80040239287496 329.5921054843808 322.57602559910686L329.5921054843808 322.57602559910686L343.4830270709233 325.10164770575096Q340.21618978080755 345.9380300855648 330.36077308205506 362.93107447700714L330.36077308205506 362.93107447700714L350.6206547636132 389.3677493541623L332.8589427744964 389.3677493541623L321.493643294598 374.51599327052685Q304.5005989031556 392.85420595789924 280.56209371844204 392.85420595789924L280.56209371844204 392.85420595789924Q259.506092025007 392.85420595789924 247.94862564568993 381.46145406379816Q236.36370685217022 370.068702169697 236.36370685217022 353.07565777825465ZM386.14407874184644 257.9255901518584L386.14407874184644 313.7088958116499L425.126506909614 313.7088958116499Q439.6213816086149 313.7088958116499 447.41786724216854 305.9673150065016Q455.24180528992474 298.2531866155561 455.24180528992474 285.515266425525L455.24180528992474 285.515266425525Q455.24180528992474 273.16168003433097 447.0335334433313 265.5299088859934Q438.85271401094064 257.9255901518584 423.5891717142655 257.9255901518584L423.5891717142655 257.9255901518584L386.14407874184644 257.9255901518584ZM386.14407874184644 389.3677493541623L370.6883695457527 389.3677493541623L370.6883695457527 244.80333616299018L427.0756283180025 244.80333616299018Q448.29634449665343 244.80333616299018 459.68909639075446 256.27844529969923Q471.0818482848556 267.7535544364083 471.0818482848556 284.5544319284321L471.0818482848556 284.5544319284321Q471.0818482848556 299.79052181090464 463.34026747970745 309.26160471082005Q455.6261390887619 318.7326876107354 446.37467550246765 321.23085730317683L446.37467550246765 321.23085730317683Q454.47313769225036 325.4859815045881 458.1517611954059 331.66277470018514Q461.8029322843588 337.8395678957821 464.1363874915844 348.8205335768434L464.1363874915844 348.8205335768434Q466.63455718402577 359.63678477268877 467.70520133792934 363.58993241787084Q468.7483930776301 367.5430800630529 471.5485393263008 374.900327069364Q474.34868557497134 382.2301216614724 478.41164287696404 389.3677493541623L478.41164287696404 389.3677493541623L461.03426468668454 389.3677493541623Q457.7674273965688 383.19095615856526 455.1594480473167 376.13568570848344Q452.5514686980647 369.1078676726042 451.3984673015532 364.55076691496373Q450.2180134908391 360.02111857152596 447.9120106978163 350.0009873875575L447.9120106978163 350.0009873875575Q445.4138410053748 339.1847361917121 440.28023954947867 333.0079429961151Q435.1740905077852 326.8311498005181 423.9735055131026 326.8311498005181L423.9735055131026 326.8311498005181L386.14407874184644 326.8311498005181L386.14407874184644 389.3677493541623Z " fill="BCB88A" transform="matrix(0.9692525932517241,0,0,0.9692525932517242,-0.2438481033676938,-8.081053708641434)"/><path d="M553.814285293433 366.1979117671229L553.814285293433 366.1979117671229L567.7326592941782 360.9819530686188Q570.4229958860383 369.6843683708599 576.5174318390274 374.5983505131348Q582.5844153778137 379.5123326554097 590.875044467015 379.5123326554097L590.875044467015 379.5123326554097Q613.6605482552171 379.5123326554097 613.6605482552171 347.2831983814948L613.6605482552171 347.2831983814948L613.6605482552171 244.80333616299018L629.116257451311 244.80333616299018L629.116257451311 349.8088204881389Q629.116257451311 371.02953666678985 619.3431979951664 381.92814510524323Q609.5975909532245 392.85420595789924 591.2593782658521 392.85420595789924L591.2593782658521 392.85420595789924Q562.5167005956741 392.85420595789924 553.814285293433 366.1979117671229ZM676.3893147082798 352.8834908788361L676.3893147082798 352.8834908788361Q676.3893147082798 365.4292441694486 684.5975865548731 372.75903876155706Q692.8058584014665 380.0888333536655 705.7359454909162 380.0888333536655L705.7359454909162 380.0888333536655Q723.3054905806144 380.0888333536655 737.580745965994 362.93107447700714L737.580745965994 362.93107447700714L701.865155088342 314.47756340932415Q690.4998556084437 322.3838586996883 683.4445851583617 331.4706078007665Q676.3893147082798 340.5299044876421 676.3893147082798 352.8834908788361ZM660.9610579263887 353.07565777825465L660.9610579263887 353.07565777825465Q660.9610579263887 324.4976945932926 693.9588597979781 303.66131221347877L693.9588597979781 303.66131221347877Q693.3823590997223 302.70047771638593 692.0371908037922 300.9709756216187L692.0371908037922 300.9709756216187Q687.2055659041254 294.21768172776603 685.174087253129 290.92339202344766Q683.1426086021326 287.6565547333319 681.4131065073656 282.82492983366495Q679.6836044125984 277.993304933998 679.6836044125984 272.58517933607527L679.6836044125984 272.58517933607527Q679.6836044125984 260.2315929448813 689.0448776557031 251.55663005684286Q698.4061508988078 242.8542147546018 715.2070283908316 242.8542147546018L715.2070283908316 242.8542147546018Q740.8750356703125 242.8542147546018 752.8442882626692 267.1770537381526L752.8442882626692 267.1770537381526L741.067202569731 272.3930124366567Q737.580745965994 265.63971854280396 730.7450948295333 260.5335695011105Q723.88199127887 255.39996804521434 716.1678628879246 255.39996804521434L716.1678628879246 255.39996804521434Q706.312446189172 255.39996804521434 700.7121536918306 260.5335695011105Q695.1118611944895 265.63971854280396 695.1118611944895 273.16168003433097L695.1118611944895 273.16168003433097Q695.1118611944895 281.0679753246951 706.5046130885906 298.06101971613754Q717.8973649826916 315.0540641075799 745.2948743569397 350.7696549852318L745.2948743569397 350.7696549852318Q751.2795006531179 338.80040239287496 754.1894565585993 322.57602559910686L754.1894565585993 322.57602559910686L768.0803781451417 325.10164770575096Q764.813540855026 345.9380300855648 754.9581241562736 362.93107447700714L754.9581241562736 362.93107447700714L775.2180058378316 389.3677493541623L757.4562938487151 389.3677493541623L746.0909943688165 374.51599327052685Q729.0979499773742 392.85420595789924 705.1594447926606 392.85420595789924L705.1594447926606 392.85420595789924Q684.1034430992255 392.85420595789924 672.5459767199085 381.46145406379816Q660.9610579263887 370.068702169697 660.9610579263887 353.07565777825465ZM810.7414298160651 257.9255901518584L810.7414298160651 313.7088958116499L849.7238579838325 313.7088958116499Q864.2187326828335 313.7088958116499 872.0152183163872 305.9673150065016Q879.8391563641434 298.2531866155561 879.8391563641434 285.515266425525L879.8391563641434 285.515266425525Q879.8391563641434 273.16168003433097 871.6308845175498 265.5299088859934Q863.4500650851593 257.9255901518584 848.186522788484 257.9255901518584L848.186522788484 257.9255901518584L810.7414298160651 257.9255901518584ZM810.7414298160651 389.3677493541623L795.2857206199711 389.3677493541623L795.2857206199711 244.80333616299018L851.672979392221 244.80333616299018Q872.893695570872 244.80333616299018 884.2864474649731 256.27844529969923Q895.6791993590742 267.7535544364083 895.6791993590742 284.5544319284321L895.6791993590742 284.5544319284321Q895.6791993590742 299.79052181090464 887.937618553926 309.26160471082005Q880.2234901629805 318.7326876107354 870.9720265766863 321.23085730317683L870.9720265766863 321.23085730317683Q879.0704887664689 325.4859815045881 882.7491122696246 331.66277470018514Q886.4002833585774 337.8395678957821 888.733738565803 348.8205335768434L888.733738565803 348.8205335768434Q891.2319082582443 359.63678477268877 892.302552412148 363.58993241787084Q893.3457441518486 367.5430800630529 896.1458904005193 374.900327069364Q898.94603664919 382.2301216614724 903.0089939511826 389.3677493541623L903.0089939511826 389.3677493541623L885.6316157609032 389.3677493541623Q882.3647784707874 383.19095615856526 879.7567991215352 376.13568570848344Q877.1488197722832 369.1078676726042 875.9958183757718 364.55076691496373Q874.8153645650576 360.02111857152596 872.5093617720348 350.0009873875575L872.5093617720348 350.0009873875575Q870.0111920795933 339.1847361917121 864.8775906236973 333.0079429961151Q859.7714415820038 326.8311498005181 848.5708565873211 326.8311498005181L848.5708565873211 326.8311498005181L810.7414298160651 326.8311498005181L810.7414298160651 389.3677493541623Z " fill="#f7f7f9" transform="matrix(0.9692525932517241,0,0,0.9692525932517242,-0.2438481033676938,-8.081053708641434)"/></g></svg>